<?xml version="1.0" encoding="utf-8"?><svg xmlns="http://www.w3.org/2000/svg" xmlns:xlink="http://www.w3.org/1999/xlink"><symbol viewBox="0 0 40 40" id="home1" xmlns="http://www.w3.org/2000/svg"><path d="M3.5 38.5V13.286L19.998 3.58 36.5 13.286V38.5z"/><path d="M19.998 4.16L36 13.572V38H4V13.572L19.998 4.16m0-1.16L3 13v26h34V13L19.998 3z"/><path d="M19.998 4.645L1.5 15.955v-3.059l18.498-11.31L38.5 12.896v3.059z"/><path d="M19.998 2.172L38 13.176v1.887L20.519 4.378l-.522-.319-.522.319L2 15.063v-1.887L19.998 2.172m0-1.172L1 12.615v4.231L19.998 5.231 39 16.846v-4.231L19.998 1zM14.5 21.5h11v17h-11z"/><path d="M25 22v16H15V22h10m1-1H14v18h12V21z"/><path d="M23 30a1 1 0 100 2 1 1 0 100-2z"/></symbol><symbol viewBox="0 0 50 50" id="home2" xmlns="http://www.w3.org/2000/svg"><path d="M25 1.05c-.218 0-.434.07-.62.21l-23 17.95c-.43.34-.51.97-.17 1.41.34.43.97.51 1.41.17L4 19.71V46c0 .55.45 1 1 1h14V29h12v18h14c.55 0 1-.45 1-1V19.71l1.38 1.08c.19.14.4.21.62.21.3 0 .59-.13.79-.38a1.01 1.01 0 00-.17-1.41l-23-17.95a1.022 1.022 0 00-.62-.21zM35 5v1.05l6 4.68V5h-6z"/></symbol><symbol viewBox="0 0 40 40" id="home3" xmlns="http://www.w3.org/2000/svg"><path d="M3.5 38.5V13.286L19.998 3.58 36.5 13.286V38.5z"/><path d="M19.998 4.16L36 13.572V38H4V13.572L19.998 4.16m0-1.16L3 13v26h34V13L19.998 3z"/><path d="M4 34h32v4H4zM19.998 4.645L1.5 15.955v-3.059l18.498-11.31L38.5 12.896v3.059z"/><path d="M19.998 2.172L38 13.176v1.887L20.519 4.378l-.522-.319-.522.319L2 15.063v-1.887L19.998 2.172m0-1.172L1 12.615v4.231L19.998 5.231 39 16.846v-4.231L19.998 1zM14.5 21.5h11v17h-11z"/><path d="M25 22v16H15V22h10m1-1H14v18h12V21z"/><path d="M23 30a1 1 0 100 2 1 1 0 100-2z"/></symbol><symbol viewBox="0 0 510 510" id="home4" xmlns="http://www.w3.org/2000/svg"><path d="M204 471.75v-153h102v153h127.5v-204H510L255 38.25 0 267.75h76.5v204z"/></symbol></svg>